# File created by Blade
# Date/Time:  Tue Jan 27 19:14:06 2015
# Frame Rate: 120.000 fps
#------------------------------------------------------
:FULLY-SPECIFIED
:DEGREES
3802
root 3.864107 32.422464 0.922919 -4.437136 3.369067 0.745950
Spine -0.382547 1.587867 -2.038082
Head 14.434427 -18.709700 -2.361531
LeftShoulder -6.901789 -6.746905 24.151205
LeftArm -7.166193 36.274590 -105.709190
LeftForeArm 5.490815 -0.000000 10.229410
LeftHand 9.735042 0.000000 -6.148696
LeftHandThumb1 -26.253704 0.000000 33.147579
RightShoulder -18.642852 9.694433 -62.766961
RightArm 46.246742 59.656183 42.530800
RightForeArm 4.309956 0.000000 33.542839
RightHand 21.339222 -0.000000 -13.176330
RightHandThumb1 -24.326973 -0.000000 -32.862282
LeftUpLeg 11.054432 -2.139543 -0.644809
LeftLeg 1.541002 -0.000000 -0.000000
LeftFoot -15.427438 9.745128 -22.180325
LeftToeBase 18.496531 -0.000000 -0.000000
RightUpLeg 10.373118 -0.646816 3.690925
RightLeg 0.617132 -0.000000 -0.000000
RightFoot -12.810747 -15.844022 13.915594
RightToeBase 12.008218 -0.000000 -0.000000
3803
root 3.865699 32.423304 0.920775 -4.439489 3.359549 0.753559
Spine -0.376634 1.605672 -2.032555
Head 14.442280 -18.742522 -2.370351
LeftShoulder -6.889276 -6.746928 24.138078
LeftArm -7.145673 36.266643 -105.692059
LeftForeArm 5.502406 -0.000000 10.242157
LeftHand 9.713425 -0.000000 -6.078365
LeftHandThumb1 -26.253704 0.000000 33.147579
RightShoulder -18.576053 9.703915 -62.747435
RightArm 46.374970 59.893634 42.921239
RightForeArm 4.543033 -0.000000 34.282813
RightHand 21.417034 -0.000000 -13.139059
RightHandThumb1 -24.326973 -0.000000 -32.862282
LeftUpLeg 11.045467 -2.106846 -0.649852
LeftLeg 1.556343 -0.000000 -0.000000
LeftFoot -15.412868 9.737489 -22.169060
LeftToeBase 18.485103 -0.000000 -0.000000
RightUpLeg 10.367588 -0.656607 3.676990
RightLeg 0.624616 -0.000000 -0.000000
RightFoot -12.753257 -15.825513 13.837254
RightToeBase 11.805185 -0.000000 -0.000000
3804
root 3.865923 32.424355 0.917815 -4.441277 3.361381 0.754827
Spine -0.366760 1.594483 -2.019827
Head 14.457620 -18.749914 -2.385129
LeftShoulder -6.888424 -6.755223 24.110039
LeftArm -7.138391 36.264460 -105.668209
LeftForeArm 5.553998 -0.000000 10.249547
LeftHand 9.749520 -0.000000 -5.757383
LeftHandThumb1 -26.253704 0.000000 33.147579
RightShoulder -18.506443 9.749647 -62.733629
RightArm 46.527612 60.138584 43.402806
RightForeArm 4.934675 -0.000000 35.158327
RightHand 21.721645 -0.000000 -13.209699
RightHandThumb1 -24.326973 -0.000000 -32.862282
LeftUpLeg 11.036616 -2.089038 -0.647587
LeftLeg 1.566040 -0.000000 -0.000000
LeftFoot -15.396071 9.715633 -22.158999
LeftToeBase 18.507259 -0.000000 -0.000000
RightUpLeg 10.362177 -0.650773 3.675456
RightLeg 0.627630 -0.000000 -0.000000
RightFoot -12.742249 -15.834637 13.826193
RightToeBase 11.841186 -0.000000 -0.000000
3805
root 3.865449 32.425255 0.913557 -4.433833 3.356768 0.758684
Spine -0.362656 1.597853 -2.018029
Head 14.473484 -18.768707 -2.389520
LeftShoulder -6.884423 -6.746462 24.093069
LeftArm -7.104336 36.271499 -105.630008
LeftForeArm 5.534350 -0.000000 10.264802
LeftHand 9.740626 -0.000000 -5.738535
LeftHandThumb1 -26.253704 0.000000 33.147579
RightShoulder -18.422466 9.842674 -62.725172
RightArm 46.749341 60.485122 44.065755
RightForeArm 5.203048 -0.000000 36.237139
RightHand 21.792712 -0.000000 -13.148140
RightHandThumb1 -24.326973 -0.000000 -32.862282
LeftUpLeg 11.019805 -2.096785 -0.651819
LeftLeg 1.571240 -0.000000 -0.000000
LeftFoot -15.392349 9.713963 -22.198290
LeftToeBase 18.476012 -0.000000 -0.000000
RightUpLeg 10.337976 -0.630455 3.674510
RightLeg 0.646252 -0.000000 -0.000000
RightFoot -12.751806 -15.834778 13.859184
RightToeBase 11.826669 -0.000000 -0.000000
3806
root 3.867278 32.426510 0.910993 -4.447249 3.345156 0.764525
Spine -0.334668 1.604539 -2.000682
Head 14.486634 -18.779809 -2.418775
LeftShoulder -6.882332 -6.752117 24.058740
LeftArm -7.092424 36.255202 -105.598018
LeftForeArm 5.560393 0.000000 10.289803
LeftHand 9.756882 -0.000000 -5.710676
LeftHandThumb1 -26.253704 0.000000 33.147579
RightShoulder -18.341043 9.926303 -62.701416
RightArm 47.039203 60.858642 44.778405
RightForeArm 5.456938 -0.000000 37.420048
RightHand 21.871585 -0.000000 -13.298808
RightHandThumb1 -24.326973 -0.000000 -32.862282
LeftUpLeg 11.024676 -2.098669 -0.664633
LeftLeg 1.592127 -0.000000 -0.000000
LeftFoot -15.399723 9.720423 -22.194272
LeftToeBase 18.592640 -0.000000 -0.000000
RightUpLeg 10.343260 -0.623528 3.664277
RightLeg 0.651201 -0.000000 -0.000000
RightFoot -12.751946 -15.823638 13.869770
RightToeBase 11.886934 -0.000000 -0.000000
3807
root 3.866888 32.428286 0.906804 -4.447406 3.346201 0.763076
Spine -0.315052 1.600030 -1.976472
Head 14.505488 -18.790405 -2.468850
LeftShoulder -6.885889 -6.754535 24.008817
LeftArm -7.074285 36.301944 -105.547949
LeftForeArm 5.501942 -0.000000 10.320990
LeftHand 9.742411 0.000000 -5.718938
LeftHandThumb1 -26.253704 0.000000 33.147579
RightShoulder -18.245739 10.065395 -62.683787
RightArm 47.084165 61.198734 45.267265
RightForeArm 5.779003 -0.000000 38.771379
RightHand 21.964502 -0.000000 -13.490877
RightHandThumb1 -24.326973 -0.000000 -32.862282
LeftUpLeg 11.014828 -2.107926 -0.662163
LeftLeg 1.584889 -0.000000 -0.000000
LeftFoot -15.367221 9.751532 -22.178955
LeftToeBase 18.491628 -0.000000 -0.000000
RightUpLeg 10.332752 -0.617197 3.667666
RightLeg 0.655522 -0.000000 -0.000000
RightFoot -12.725455 -15.848430 13.853014
RightToeBase 11.864405 -0.000000 -0.000000
3808
root 3.867357 32.429247 0.903143 -4.450746 3.343917 0.766814
Spine -0.288108 1.618921 -1.960677
Head 14.491646 -18.827094 -2.494023
LeftShoulder -6.880493 -6.790087 23.974914
LeftArm -7.079638 36.335242 -105.527296
LeftForeArm 5.493064 -0.000000 10.334574
LeftHand 9.758172 -0.000000 -5.726680
LeftHandThumb1 -26.253704 0.000000 33.147579
RightShoulder -18.179205 10.057851 -62.593853
RightArm 47.534250 61.651950 46.096271
RightForeArm 5.888291 -0.000000 40.166388
RightHand 22.187093 -0.000000 -13.577159
RightHandThumb1 -24.326973 -0.000000 -32.862282
LeftUpLeg 11.002167 -2.119544 -0.670309
LeftLeg 1.605437 -0.000000 -0.000000
LeftFoot -15.374930 9.773948 -22.160902
LeftToeBase 18.483906 -0.000000 -0.000000
RightUpLeg 10.323852 -0.613948 3.661063
RightLeg 0.670660 -0.000000 -0.000000
RightFoot -12.734565 -15.830712 13.862951
RightToeBase 11.899669 -0.000000 -0.000000
3809
root 3.867539 32.430038 0.898141 -4.445876 3.345935 0.768197
Spine -0.270561 1.660450 -1.940953
Head 14.459301 -18.913356 -2.521823
LeftShoulder -6.845445 -6.806894 23.937370
LeftArm -7.053235 36.360779 -105.489344
LeftForeArm 5.478614 -0.000000 10.359938
LeftHand 9.745595 -0.000000 -5.718737
LeftHandThumb1 -26.253704 0.000000 33.147579
RightShoulder -18.076521 10.061463 -62.498187
RightArm 47.864976 62.172345 46.854326
RightForeArm 6.083215 0.000000 41.769984
RightHand 22.463082 -0.000000 -13.431455
RightHandThumb1 -24.326973 -0.000000 -32.862282
LeftUpLeg 10.985093 -2.148037 -0.676663
LeftLeg 1.611042 -0.000000 -0.000000
LeftFoot -15.377169 9.791927 -22.193994
LeftToeBase 18.508162 -0.000000 -0.000000
RightUpLeg 10.313157 -0.613045 3.659160
RightLeg 0.659999 -0.000000 -0.000000
RightFoot -12.710639 -15.840165 13.865957
RightToeBase 11.805781 -0.000000 -0.000000
3810
root 3.868769 32.431245 0.894604 -4.451210 3.344848 0.776618
Spine -0.234211 1.703320 -1.915813
Head 14.442884 -18.943084 -2.571322
LeftShoulder -6.829354 -6.843248 23.890357
LeftArm -7.048276 36.426258 -105.457143
LeftForeArm 5.465758 0.000000 10.388526
LeftHand 9.765835 -0.000000 -5.761105
LeftHandThumb1 -26.253704 0.000000 33.147579
RightShoulder -18.000472 10.170796 -62.457169
RightArm 47.879556 62.584575 47.321177
RightForeArm 6.457742 -0.000000 43.522167
RightHand 22.771947 -0.000000 -13.677809
RightHandThumb1 -24.326973 -0.000000 -32.862282
LeftUpLeg 10.977670 -2.230438 -0.705834
LeftLeg 1.637903 -0.000000 -0.000000
LeftFoot -15.409025 9.852067 -22.218501
LeftToeBase 18.576757 -0.000000 -0.000000
RightUpLeg 10.315015 -0.637047 3.643210
RightLeg 0.652311 -0.000000 -0.000000
RightFoot -12.701251 -15.812916 13.879677
RightToeBase 11.851355 -0.000000 -0.000000
